<?xml version="1.0" encoding="UTF-8"?>
<svg xmlns="http://www.w3.org/2000/svg" xmlns:xlink="http://www.w3.org/1999/xlink" width="3000" height="3000" viewBox="0 0 3000 3000">
<defs>
<clipPath id="clip-0">
<path clip-rule="nonzero" d="M 753 722 L 2270 722 L 2270 1800 L 753 1800 Z M 753 722 "/>
</clipPath>
<clipPath id="clip-1">
<path clip-rule="nonzero" d="M 1511.371094 722.761719 C 1639.378906 722.761719 1760.128906 754.550781 1865.898438 810.730469 C 1688.628906 812.710938 1568.699219 816.660156 1568.699219 821.109375 C 1568.699219 825.890625 1705.601562 830.011719 1903.128906 831.820312 C 1961.128906 866.910156 2014.011719 909.578125 2060.46875 958.339844 C 1827.351562 959.988281 1658.808594 964.441406 1658.808594 969.710938 C 1658.808594 974.980469 1837.238281 979.601562 2081.058594 981.078125 C 2083.699219 984.039062 2086.171875 987.011719 2088.640625 989.980469 C 1901.320312 991.789062 1773.148438 995.910156 1773.148438 1000.519531 C 1773.148438 1005.128906 1909.398438 1009.25 2106.101562 1011.230469 C 2135.261719 1047.96875 2160.960938 1087.511719 2182.871094 1129.519531 C 1904.621094 1130.339844 1691.761719 1135.28125 1691.761719 1141.210938 C 1691.761719 1147.140625 1910.710938 1152.089844 2194.730469 1152.910156 C 2220.109375 1205.789062 2239.550781 1262.140625 2252.070312 1320.949219 C 2115.820312 1323.089844 2028.339844 1326.550781 2028.339844 1330.339844 C 2028.339844 1334.128906 2117.46875 1337.589844 2255.859375 1339.730469 C 2260.800781 1366.089844 2264.421875 1393.109375 2266.558594 1420.460938 C 2045.148438 1422.109375 1887.480469 1426.390625 1887.480469 1431.5 C 1887.480469 1436.601562 2045.96875 1440.890625 2268.050781 1442.699219 C 2268.710938 1455.21875 2269.039062 1467.738281 2269.039062 1480.429688 C 2269.039062 1579.269531 2250.089844 1673.671875 2215.660156 1760.171875 C 2182.710938 1727.050781 2159.148438 1702.5 2159.148438 1702.5 L 1836.25 1462.628906 L 1747.121094 1460.160156 L 1580.398438 1275.148438 L 1516.640625 1442.53125 L 1443.488281 1423.589844 L 1254.859375 1744.351562 C 1254.859375 1744.351562 1061.121094 1530.179688 1075.78125 1543.851562 C 1090.28125 1557.53125 917.785156 1706.621094 917.785156 1706.621094 L 824.046875 1799.539062 C 778.90625 1702.5 753.699219 1594.429688 753.699219 1480.429688 C 753.699219 1470.378906 753.863281 1460.328125 754.359375 1450.441406 L 767.539062 1450.441406 C 1089.289062 1450.441406 1350.078125 1445.171875 1350.078125 1438.578125 C 1350.078125 1431.988281 1089.289062 1426.71875 767.539062 1426.71875 L 755.511719 1426.71875 C 757.324219 1401.511719 760.453125 1376.640625 764.570312 1352.089844 C 965.234375 1350.28125 1104.769531 1346.160156 1104.769531 1341.378906 C 1104.769531 1336.769531 982.53125 1332.980469 802.464844 1330.839844 C 929.484375 1328.691406 1010.371094 1325.398438 1010.371094 1321.769531 C 1010.371094 1317.988281 916.796875 1314.359375 772.480469 1312.21875 C 784.507812 1258.839844 802.300781 1207.769531 824.871094 1159.339844 C 1070.011719 1157.851562 1249.75 1153.238281 1249.75 1147.800781 C 1249.75 1142.53125 1075.449219 1137.921875 836.070312 1136.441406 C 838.542969 1131.660156 841.015625 1126.878906 843.652344 1122.101562 C 1022.070312 1119.960938 1142.671875 1116.171875 1142.671875 1111.71875 C 1142.671875 1107.28125 1027.179688 1103.488281 855.183594 1101.511719 C 870.011719 1075.640625 886.484375 1050.929688 904.113281 1027.210938 C 1030.308594 1024.898438 1110.210938 1021.769531 1110.210938 1018.148438 C 1110.210938 1014.519531 1036.070312 1011.390625 917.949219 1009.25 C 934.261719 988.820312 951.558594 969.21875 969.847656 950.601562 C 1229.160156 949.449219 1422.898438 944.671875 1422.898438 939.070312 C 1422.898438 933.628906 1240.851562 929.019531 993.238281 927.539062 C 997.851562 923.25 1002.46875 919.128906 1007.078125 914.851562 C 1308.890625 914.519531 1546.949219 909.410156 1546.949219 903.148438 C 1546.949219 897.058594 1323.390625 891.949219 1034.921875 891.289062 C 1165.070312 785.859375 1330.808594 722.761719 1511.371094 722.761719 Z M 1511.371094 722.761719 "/>
</clipPath>
<clipPath id="clip-2">
<path clip-rule="nonzero" d="M 1511.371094 722.761719 C 1639.378906 722.761719 1760.128906 754.550781 1865.898438 810.730469 C 1688.628906 812.710938 1568.699219 816.660156 1568.699219 821.109375 C 1568.699219 825.890625 1705.601562 830.011719 1903.128906 831.820312 C 1961.128906 866.910156 2014.011719 909.578125 2060.46875 958.339844 C 1827.351562 959.988281 1658.808594 964.441406 1658.808594 969.710938 C 1658.808594 974.980469 1837.238281 979.601562 2081.058594 981.078125 C 2083.699219 984.039062 2086.171875 987.011719 2088.640625 989.980469 C 1901.320312 991.789062 1773.148438 995.910156 1773.148438 1000.519531 C 1773.148438 1005.128906 1909.398438 1009.25 2106.101562 1011.230469 C 2135.261719 1047.96875 2160.960938 1087.511719 2182.871094 1129.519531 C 1904.621094 1130.339844 1691.761719 1135.28125 1691.761719 1141.210938 C 1691.761719 1147.140625 1910.710938 1152.089844 2194.730469 1152.910156 C 2220.109375 1205.789062 2239.550781 1262.140625 2252.070312 1320.949219 C 2115.820312 1323.089844 2028.339844 1326.550781 2028.339844 1330.339844 C 2028.339844 1334.128906 2117.46875 1337.589844 2255.859375 1339.730469 C 2260.800781 1366.089844 2264.421875 1393.109375 2266.558594 1420.460938 C 2045.148438 1422.109375 1887.480469 1426.390625 1887.480469 1431.5 C 1887.480469 1436.601562 2045.96875 1440.890625 2268.050781 1442.699219 C 2268.710938 1455.21875 2269.039062 1467.738281 2269.039062 1480.429688 C 2269.039062 1579.269531 2250.089844 1673.671875 2215.660156 1760.171875 C 2182.710938 1727.050781 2159.148438 1702.5 2159.148438 1702.5 L 1836.25 1462.628906 L 1747.121094 1460.160156 L 1580.398438 1275.148438 L 1516.640625 1442.53125 L 1443.488281 1423.589844 L 1254.859375 1744.351562 C 1254.859375 1744.351562 1061.121094 1530.179688 1075.78125 1543.851562 C 1090.28125 1557.53125 917.785156 1706.621094 917.785156 1706.621094 L 824.046875 1799.539062 C 778.90625 1702.5 753.699219 1594.429688 753.699219 1480.429688 C 753.699219 1470.378906 753.863281 1460.328125 754.359375 1450.441406 L 767.539062 1450.441406 C 1089.289062 1450.441406 1350.078125 1445.171875 1350.078125 1438.578125 C 1350.078125 1431.988281 1089.289062 1426.71875 767.539062 1426.71875 L 755.511719 1426.71875 C 757.324219 1401.511719 760.453125 1376.640625 764.570312 1352.089844 C 965.234375 1350.28125 1104.769531 1346.160156 1104.769531 1341.378906 C 1104.769531 1336.769531 982.53125 1332.980469 802.464844 1330.839844 C 929.484375 1328.691406 1010.371094 1325.398438 1010.371094 1321.769531 C 1010.371094 1317.988281 916.796875 1314.359375 772.480469 1312.21875 C 784.507812 1258.839844 802.300781 1207.769531 824.871094 1159.339844 C 1070.011719 1157.851562 1249.75 1153.238281 1249.75 1147.800781 C 1249.75 1142.53125 1075.449219 1137.921875 836.070312 1136.441406 C 838.542969 1131.660156 841.015625 1126.878906 843.652344 1122.101562 C 1022.070312 1119.960938 1142.671875 1116.171875 1142.671875 1111.71875 C 1142.671875 1107.28125 1027.179688 1103.488281 855.183594 1101.511719 C 870.011719 1075.640625 886.484375 1050.929688 904.113281 1027.210938 C 1030.308594 1024.898438 1110.210938 1021.769531 1110.210938 1018.148438 C 1110.210938 1014.519531 1036.070312 1011.390625 917.949219 1009.25 C 934.261719 988.820312 951.558594 969.21875 969.847656 950.601562 C 1229.160156 949.449219 1422.898438 944.671875 1422.898438 939.070312 C 1422.898438 933.628906 1240.851562 929.019531 993.238281 927.539062 C 997.851562 923.25 1002.46875 919.128906 1007.078125 914.851562 C 1308.890625 914.519531 1546.949219 909.410156 1546.949219 903.148438 C 1546.949219 897.058594 1323.390625 891.949219 1034.921875 891.289062 C 1165.070312 785.859375 1330.808594 722.761719 1511.371094 722.761719 "/>
</clipPath>
<radialGradient id="radial-pattern-0" gradientUnits="userSpaceOnUse" cx="0" cy="0" fx="0" fy="0" r="627.516629" gradientTransform="matrix(1.14817, -0.148379, -0.208438, -0.816084, 1511.61, 1282.42)">
<stop offset="0" stop-color="rgb(96.463013%, 79.467773%, 11.381531%)" stop-opacity="1"/>
<stop offset="0.0078125" stop-color="rgb(96.453857%, 79.258728%, 11.395264%)" stop-opacity="1"/>
<stop offset="0.0117188" stop-color="rgb(96.447754%, 79.118347%, 11.404419%)" stop-opacity="1"/>
<stop offset="0.015625" stop-color="rgb(96.44165%, 78.979492%, 11.413574%)" stop-opacity="1"/>
<stop offset="0.0195312" stop-color="rgb(96.435547%, 78.839111%, 11.422729%)" stop-opacity="1"/>
<stop offset="0.0234375" stop-color="rgb(96.429443%, 78.700256%, 11.431885%)" stop-opacity="1"/>
<stop offset="0.0273438" stop-color="rgb(96.42334%, 78.561401%, 11.44104%)" stop-opacity="1"/>
<stop offset="0.03125" stop-color="rgb(96.417236%, 78.421021%, 11.450195%)" stop-opacity="1"/>
<stop offset="0.0351562" stop-color="rgb(96.411133%, 78.282166%, 11.459351%)" stop-opacity="1"/>
<stop offset="0.0390625" stop-color="rgb(96.405029%, 78.143311%, 11.468506%)" stop-opacity="1"/>
<stop offset="0.0429688" stop-color="rgb(96.398926%, 78.00293%, 11.477661%)" stop-opacity="1"/>
<stop offset="0.046875" stop-color="rgb(96.392822%, 77.864075%, 11.486816%)" stop-opacity="1"/>
<stop offset="0.0507812" stop-color="rgb(96.386719%, 77.72522%, 11.495972%)" stop-opacity="1"/>
<stop offset="0.0546875" stop-color="rgb(96.380615%, 77.584839%, 11.505127%)" stop-opacity="1"/>
<stop offset="0.0585938" stop-color="rgb(96.374512%, 77.445984%, 11.514282%)" stop-opacity="1"/>
<stop offset="0.0625" stop-color="rgb(96.368408%, 77.307129%, 11.523438%)" stop-opacity="1"/>
<stop offset="0.0664062" stop-color="rgb(96.362305%, 77.166748%, 11.532593%)" stop-opacity="1"/>
<stop offset="0.0703125" stop-color="rgb(96.356201%, 77.027893%, 11.541748%)" stop-opacity="1"/>
<stop offset="0.0742188" stop-color="rgb(96.350098%, 76.887512%, 11.550903%)" stop-opacity="1"/>
<stop offset="0.078125" stop-color="rgb(96.343994%, 76.748657%, 11.560059%)" stop-opacity="1"/>
<stop offset="0.0820312" stop-color="rgb(96.337891%, 76.609802%, 11.569214%)" stop-opacity="1"/>
<stop offset="0.0859375" stop-color="rgb(96.331787%, 76.469421%, 11.578369%)" stop-opacity="1"/>
<stop offset="0.0898438" stop-color="rgb(96.325684%, 76.330566%, 11.587524%)" stop-opacity="1"/>
<stop offset="0.09375" stop-color="rgb(96.31958%, 76.191711%, 11.59668%)" stop-opacity="1"/>
<stop offset="0.0976562" stop-color="rgb(96.313477%, 76.051331%, 11.605835%)" stop-opacity="1"/>
<stop offset="0.101562" stop-color="rgb(96.307373%, 75.912476%, 11.61499%)" stop-opacity="1"/>
<stop offset="0.105469" stop-color="rgb(96.30127%, 75.773621%, 11.624146%)" stop-opacity="1"/>
<stop offset="0.109375" stop-color="rgb(96.295166%, 75.63324%, 11.633301%)" stop-opacity="1"/>
<stop offset="0.113281" stop-color="rgb(96.289062%, 75.494385%, 11.642456%)" stop-opacity="1"/>
<stop offset="0.117188" stop-color="rgb(96.282959%, 75.35553%, 11.651611%)" stop-opacity="1"/>
<stop offset="0.121094" stop-color="rgb(96.276855%, 75.215149%, 11.660767%)" stop-opacity="1"/>
<stop offset="0.125" stop-color="rgb(96.270752%, 75.076294%, 11.669922%)" stop-opacity="1"/>
<stop offset="0.128906" stop-color="rgb(96.264648%, 74.935913%, 11.679077%)" stop-opacity="1"/>
<stop offset="0.132812" stop-color="rgb(96.258545%, 74.797058%, 11.688232%)" stop-opacity="1"/>
<stop offset="0.136719" stop-color="rgb(96.252441%, 74.658203%, 11.697388%)" stop-opacity="1"/>
<stop offset="0.140625" stop-color="rgb(96.246338%, 74.517822%, 11.706543%)" stop-opacity="1"/>
<stop offset="0.144531" stop-color="rgb(96.240234%, 74.378967%, 11.715698%)" stop-opacity="1"/>
<stop offset="0.148438" stop-color="rgb(96.234131%, 74.240112%, 11.724854%)" stop-opacity="1"/>
<stop offset="0.152344" stop-color="rgb(96.228027%, 74.099731%, 11.735535%)" stop-opacity="1"/>
<stop offset="0.15625" stop-color="rgb(96.221924%, 73.960876%, 11.74469%)" stop-opacity="1"/>
<stop offset="0.160156" stop-color="rgb(96.21582%, 73.822021%, 11.753845%)" stop-opacity="1"/>
<stop offset="0.164062" stop-color="rgb(96.209717%, 73.681641%, 11.763%)" stop-opacity="1"/>
<stop offset="0.167969" stop-color="rgb(96.203613%, 73.542786%, 11.772156%)" stop-opacity="1"/>
<stop offset="0.171875" stop-color="rgb(96.19751%, 73.403931%, 11.781311%)" stop-opacity="1"/>
<stop offset="0.175781" stop-color="rgb(96.191406%, 73.26355%, 11.790466%)" stop-opacity="1"/>
<stop offset="0.179688" stop-color="rgb(96.185303%, 73.124695%, 11.799622%)" stop-opacity="1"/>
<stop offset="0.183594" stop-color="rgb(96.179199%, 72.98584%, 11.808777%)" stop-opacity="1"/>
<stop offset="0.1875" stop-color="rgb(96.173096%, 72.845459%, 11.817932%)" stop-opacity="1"/>
<stop offset="0.191406" stop-color="rgb(96.166992%, 72.706604%, 11.827087%)" stop-opacity="1"/>
<stop offset="0.195312" stop-color="rgb(96.160889%, 72.566223%, 11.836243%)" stop-opacity="1"/>
<stop offset="0.199219" stop-color="rgb(96.154785%, 72.427368%, 11.845398%)" stop-opacity="1"/>
<stop offset="0.203125" stop-color="rgb(96.148682%, 72.288513%, 11.854553%)" stop-opacity="1"/>
<stop offset="0.207031" stop-color="rgb(96.142578%, 72.148132%, 11.863708%)" stop-opacity="1"/>
<stop offset="0.210938" stop-color="rgb(96.136475%, 72.009277%, 11.872864%)" stop-opacity="1"/>
<stop offset="0.214844" stop-color="rgb(96.130371%, 71.870422%, 11.882019%)" stop-opacity="1"/>
<stop offset="0.21875" stop-color="rgb(96.124268%, 71.730042%, 11.891174%)" stop-opacity="1"/>
<stop offset="0.222656" stop-color="rgb(96.118164%, 71.591187%, 11.90033%)" stop-opacity="1"/>
<stop offset="0.226562" stop-color="rgb(96.112061%, 71.452332%, 11.909485%)" stop-opacity="1"/>
<stop offset="0.230469" stop-color="rgb(96.105957%, 71.311951%, 11.91864%)" stop-opacity="1"/>
<stop offset="0.234375" stop-color="rgb(96.099854%, 71.173096%, 11.927795%)" stop-opacity="1"/>
<stop offset="0.238281" stop-color="rgb(96.09375%, 71.034241%, 11.936951%)" stop-opacity="1"/>
<stop offset="0.242188" stop-color="rgb(96.086121%, 70.89386%, 11.946106%)" stop-opacity="1"/>
<stop offset="0.246094" stop-color="rgb(96.080017%, 70.755005%, 11.955261%)" stop-opacity="1"/>
<stop offset="0.25" stop-color="rgb(96.073914%, 70.614624%, 11.964417%)" stop-opacity="1"/>
<stop offset="0.253906" stop-color="rgb(96.064758%, 70.405579%, 11.978149%)" stop-opacity="1"/>
<stop offset="0.261719" stop-color="rgb(96.052551%, 70.127869%, 11.99646%)" stop-opacity="1"/>
<stop offset="0.269531" stop-color="rgb(96.040344%, 69.848633%, 12.014771%)" stop-opacity="1"/>
<stop offset="0.277344" stop-color="rgb(96.028137%, 69.569397%, 12.033081%)" stop-opacity="1"/>
<stop offset="0.285156" stop-color="rgb(96.01593%, 69.291687%, 12.051392%)" stop-opacity="1"/>
<stop offset="0.292969" stop-color="rgb(96.003723%, 69.012451%, 12.069702%)" stop-opacity="1"/>
<stop offset="0.300781" stop-color="rgb(95.991516%, 68.733215%, 12.088013%)" stop-opacity="1"/>
<stop offset="0.308594" stop-color="rgb(95.979309%, 68.453979%, 12.106323%)" stop-opacity="1"/>
<stop offset="0.316406" stop-color="rgb(95.967102%, 68.17627%, 12.124634%)" stop-opacity="1"/>
<stop offset="0.324219" stop-color="rgb(95.954895%, 67.897034%, 12.14447%)" stop-opacity="1"/>
<stop offset="0.332031" stop-color="rgb(95.942688%, 67.617798%, 12.162781%)" stop-opacity="1"/>
<stop offset="0.339844" stop-color="rgb(95.930481%, 67.340088%, 12.181091%)" stop-opacity="1"/>
<stop offset="0.347656" stop-color="rgb(95.918274%, 67.060852%, 12.199402%)" stop-opacity="1"/>
<stop offset="0.355469" stop-color="rgb(95.906067%, 66.781616%, 12.217712%)" stop-opacity="1"/>
<stop offset="0.363281" stop-color="rgb(95.89386%, 66.50238%, 12.236023%)" stop-opacity="1"/>
<stop offset="0.371094" stop-color="rgb(95.881653%, 66.22467%, 12.254333%)" stop-opacity="1"/>
<stop offset="0.378906" stop-color="rgb(95.869446%, 65.945435%, 12.272644%)" stop-opacity="1"/>
<stop offset="0.386719" stop-color="rgb(95.857239%, 65.666199%, 12.290955%)" stop-opacity="1"/>
<stop offset="0.394531" stop-color="rgb(95.845032%, 65.388489%, 12.309265%)" stop-opacity="1"/>
<stop offset="0.402344" stop-color="rgb(95.832825%, 65.109253%, 12.327576%)" stop-opacity="1"/>
<stop offset="0.410156" stop-color="rgb(95.820618%, 64.830017%, 12.345886%)" stop-opacity="1"/>
<stop offset="0.417969" stop-color="rgb(95.808411%, 64.550781%, 12.364197%)" stop-opacity="1"/>
<stop offset="0.425781" stop-color="rgb(95.796204%, 64.273071%, 12.382507%)" stop-opacity="1"/>
<stop offset="0.433594" stop-color="rgb(95.783997%, 63.993835%, 12.400818%)" stop-opacity="1"/>
<stop offset="0.441406" stop-color="rgb(95.77179%, 63.7146%, 12.419128%)" stop-opacity="1"/>
<stop offset="0.449219" stop-color="rgb(95.759583%, 63.43689%, 12.437439%)" stop-opacity="1"/>
<stop offset="0.457031" stop-color="rgb(95.747375%, 63.157654%, 12.45575%)" stop-opacity="1"/>
<stop offset="0.464844" stop-color="rgb(95.735168%, 62.878418%, 12.47406%)" stop-opacity="1"/>
<stop offset="0.472656" stop-color="rgb(95.722961%, 62.599182%, 12.492371%)" stop-opacity="1"/>
<stop offset="0.480469" stop-color="rgb(95.710754%, 62.321472%, 12.510681%)" stop-opacity="1"/>
<stop offset="0.488281" stop-color="rgb(95.697021%, 62.042236%, 12.530518%)" stop-opacity="1"/>
<stop offset="0.496094" stop-color="rgb(95.684814%, 61.763%, 12.548828%)" stop-opacity="1"/>
<stop offset="0.503906" stop-color="rgb(95.675659%, 61.553955%, 12.562561%)" stop-opacity="1"/>
<stop offset="0.507812" stop-color="rgb(95.669556%, 61.4151%, 12.571716%)" stop-opacity="1"/>
<stop offset="0.511719" stop-color="rgb(95.663452%, 61.276245%, 12.580872%)" stop-opacity="1"/>
<stop offset="0.515625" stop-color="rgb(95.657349%, 61.135864%, 12.590027%)" stop-opacity="1"/>
<stop offset="0.519531" stop-color="rgb(95.651245%, 60.997009%, 12.599182%)" stop-opacity="1"/>
<stop offset="0.523438" stop-color="rgb(95.645142%, 60.856628%, 12.608337%)" stop-opacity="1"/>
<stop offset="0.527344" stop-color="rgb(95.639038%, 60.717773%, 12.617493%)" stop-opacity="1"/>
<stop offset="0.53125" stop-color="rgb(95.632935%, 60.578918%, 12.626648%)" stop-opacity="1"/>
<stop offset="0.535156" stop-color="rgb(95.626831%, 60.438538%, 12.635803%)" stop-opacity="1"/>
<stop offset="0.539062" stop-color="rgb(95.620728%, 60.299683%, 12.644958%)" stop-opacity="1"/>
<stop offset="0.542969" stop-color="rgb(95.614624%, 60.160828%, 12.654114%)" stop-opacity="1"/>
<stop offset="0.546875" stop-color="rgb(95.608521%, 60.020447%, 12.663269%)" stop-opacity="1"/>
<stop offset="0.550781" stop-color="rgb(95.602417%, 59.881592%, 12.672424%)" stop-opacity="1"/>
<stop offset="0.554688" stop-color="rgb(95.596313%, 59.742737%, 12.68158%)" stop-opacity="1"/>
<stop offset="0.558594" stop-color="rgb(95.59021%, 59.602356%, 12.690735%)" stop-opacity="1"/>
<stop offset="0.5625" stop-color="rgb(95.584106%, 59.463501%, 12.69989%)" stop-opacity="1"/>
<stop offset="0.566406" stop-color="rgb(95.578003%, 59.324646%, 12.709045%)" stop-opacity="1"/>
<stop offset="0.570312" stop-color="rgb(95.571899%, 59.184265%, 12.718201%)" stop-opacity="1"/>
<stop offset="0.574219" stop-color="rgb(95.565796%, 59.04541%, 12.727356%)" stop-opacity="1"/>
<stop offset="0.578125" stop-color="rgb(95.559692%, 58.905029%, 12.736511%)" stop-opacity="1"/>
<stop offset="0.582031" stop-color="rgb(95.553589%, 58.766174%, 12.745667%)" stop-opacity="1"/>
<stop offset="0.585938" stop-color="rgb(95.547485%, 58.627319%, 12.754822%)" stop-opacity="1"/>
<stop offset="0.589844" stop-color="rgb(95.541382%, 58.486938%, 12.763977%)" stop-opacity="1"/>
<stop offset="0.59375" stop-color="rgb(95.535278%, 58.348083%, 12.773132%)" stop-opacity="1"/>
<stop offset="0.597656" stop-color="rgb(95.529175%, 58.209229%, 12.782288%)" stop-opacity="1"/>
<stop offset="0.601562" stop-color="rgb(95.523071%, 58.068848%, 12.791443%)" stop-opacity="1"/>
<stop offset="0.605469" stop-color="rgb(95.516968%, 57.929993%, 12.800598%)" stop-opacity="1"/>
<stop offset="0.609375" stop-color="rgb(95.510864%, 57.791138%, 12.809753%)" stop-opacity="1"/>
<stop offset="0.613281" stop-color="rgb(95.504761%, 57.650757%, 12.818909%)" stop-opacity="1"/>
<stop offset="0.617188" stop-color="rgb(95.498657%, 57.511902%, 12.828064%)" stop-opacity="1"/>
<stop offset="0.621094" stop-color="rgb(95.492554%, 57.373047%, 12.837219%)" stop-opacity="1"/>
<stop offset="0.625" stop-color="rgb(95.48645%, 57.232666%, 12.846375%)" stop-opacity="1"/>
<stop offset="0.628906" stop-color="rgb(95.477295%, 57.023621%, 12.860107%)" stop-opacity="1"/>
<stop offset="0.636719" stop-color="rgb(95.465088%, 56.744385%, 12.878418%)" stop-opacity="1"/>
<stop offset="0.644531" stop-color="rgb(95.452881%, 56.466675%, 12.896729%)" stop-opacity="1"/>
<stop offset="0.652344" stop-color="rgb(95.440674%, 56.187439%, 12.916565%)" stop-opacity="1"/>
<stop offset="0.660156" stop-color="rgb(95.428467%, 55.908203%, 12.934875%)" stop-opacity="1"/>
<stop offset="0.667969" stop-color="rgb(95.41626%, 55.630493%, 12.953186%)" stop-opacity="1"/>
<stop offset="0.675781" stop-color="rgb(95.404053%, 55.351257%, 12.971497%)" stop-opacity="1"/>
<stop offset="0.683594" stop-color="rgb(95.391846%, 55.072021%, 12.989807%)" stop-opacity="1"/>
<stop offset="0.691406" stop-color="rgb(95.379639%, 54.792786%, 13.008118%)" stop-opacity="1"/>
<stop offset="0.699219" stop-color="rgb(95.367432%, 54.515076%, 13.026428%)" stop-opacity="1"/>
<stop offset="0.707031" stop-color="rgb(95.355225%, 54.23584%, 13.044739%)" stop-opacity="1"/>
<stop offset="0.714844" stop-color="rgb(95.343018%, 53.956604%, 13.063049%)" stop-opacity="1"/>
<stop offset="0.722656" stop-color="rgb(95.330811%, 53.678894%, 13.08136%)" stop-opacity="1"/>
<stop offset="0.730469" stop-color="rgb(95.318604%, 53.399658%, 13.09967%)" stop-opacity="1"/>
<stop offset="0.738281" stop-color="rgb(95.304871%, 53.120422%, 13.117981%)" stop-opacity="1"/>
<stop offset="0.746094" stop-color="rgb(95.292664%, 52.841187%, 13.136292%)" stop-opacity="1"/>
<stop offset="0.753906" stop-color="rgb(95.283508%, 52.632141%, 13.150024%)" stop-opacity="1"/>
<stop offset="0.757812" stop-color="rgb(95.277405%, 52.493286%, 13.15918%)" stop-opacity="1"/>
<stop offset="0.761719" stop-color="rgb(95.271301%, 52.354431%, 13.168335%)" stop-opacity="1"/>
<stop offset="0.765625" stop-color="rgb(95.265198%, 52.21405%, 13.17749%)" stop-opacity="1"/>
<stop offset="0.769531" stop-color="rgb(95.259094%, 52.075195%, 13.186646%)" stop-opacity="1"/>
<stop offset="0.773438" stop-color="rgb(95.252991%, 51.93634%, 13.195801%)" stop-opacity="1"/>
<stop offset="0.777344" stop-color="rgb(95.246887%, 51.795959%, 13.204956%)" stop-opacity="1"/>
<stop offset="0.78125" stop-color="rgb(95.240784%, 51.657104%, 13.214111%)" stop-opacity="1"/>
<stop offset="0.785156" stop-color="rgb(95.23468%, 51.51825%, 13.223267%)" stop-opacity="1"/>
<stop offset="0.789062" stop-color="rgb(95.228577%, 51.377869%, 13.232422%)" stop-opacity="1"/>
<stop offset="0.792969" stop-color="rgb(95.222473%, 51.239014%, 13.241577%)" stop-opacity="1"/>
<stop offset="0.796875" stop-color="rgb(95.21637%, 51.100159%, 13.250732%)" stop-opacity="1"/>
<stop offset="0.800781" stop-color="rgb(95.210266%, 50.959778%, 13.259888%)" stop-opacity="1"/>
<stop offset="0.804688" stop-color="rgb(95.204163%, 50.820923%, 13.269043%)" stop-opacity="1"/>
<stop offset="0.808594" stop-color="rgb(95.198059%, 50.680542%, 13.278198%)" stop-opacity="1"/>
<stop offset="0.8125" stop-color="rgb(95.191956%, 50.541687%, 13.288879%)" stop-opacity="1"/>
<stop offset="0.816406" stop-color="rgb(95.1828%, 50.332642%, 13.302612%)" stop-opacity="1"/>
<stop offset="0.824219" stop-color="rgb(95.170593%, 50.053406%, 13.320923%)" stop-opacity="1"/>
<stop offset="0.832031" stop-color="rgb(95.158386%, 49.775696%, 13.339233%)" stop-opacity="1"/>
<stop offset="0.839844" stop-color="rgb(95.146179%, 49.49646%, 13.357544%)" stop-opacity="1"/>
<stop offset="0.847656" stop-color="rgb(95.133972%, 49.217224%, 13.375854%)" stop-opacity="1"/>
<stop offset="0.855469" stop-color="rgb(95.121765%, 48.937988%, 13.394165%)" stop-opacity="1"/>
<stop offset="0.863281" stop-color="rgb(95.109558%, 48.660278%, 13.412476%)" stop-opacity="1"/>
<stop offset="0.871094" stop-color="rgb(95.097351%, 48.381042%, 13.430786%)" stop-opacity="1"/>
<stop offset="0.878906" stop-color="rgb(95.088196%, 48.171997%, 13.444519%)" stop-opacity="1"/>
<stop offset="0.882812" stop-color="rgb(95.082092%, 48.033142%, 13.453674%)" stop-opacity="1"/>
<stop offset="0.886719" stop-color="rgb(95.075989%, 47.892761%, 13.46283%)" stop-opacity="1"/>
<stop offset="0.890625" stop-color="rgb(95.069885%, 47.753906%, 13.471985%)" stop-opacity="1"/>
<stop offset="0.894531" stop-color="rgb(95.063782%, 47.615051%, 13.48114%)" stop-opacity="1"/>
<stop offset="0.898438" stop-color="rgb(95.057678%, 47.47467%, 13.490295%)" stop-opacity="1"/>
<stop offset="0.902344" stop-color="rgb(95.051575%, 47.335815%, 13.499451%)" stop-opacity="1"/>
<stop offset="0.90625" stop-color="rgb(95.045471%, 47.19696%, 13.508606%)" stop-opacity="1"/>
<stop offset="0.910156" stop-color="rgb(95.036316%, 46.986389%, 13.522339%)" stop-opacity="1"/>
<stop offset="0.917969" stop-color="rgb(95.024109%, 46.708679%, 13.540649%)" stop-opacity="1"/>
<stop offset="0.925781" stop-color="rgb(95.011902%, 46.429443%, 13.55896%)" stop-opacity="1"/>
<stop offset="0.933594" stop-color="rgb(94.999695%, 46.150208%, 13.577271%)" stop-opacity="1"/>
<stop offset="0.941406" stop-color="rgb(94.99054%, 45.941162%, 13.591003%)" stop-opacity="1"/>
<stop offset="0.945312" stop-color="rgb(94.984436%, 45.802307%, 13.600159%)" stop-opacity="1"/>
<stop offset="0.949219" stop-color="rgb(94.978333%, 45.663452%, 13.609314%)" stop-opacity="1"/>
<stop offset="0.953125" stop-color="rgb(94.972229%, 45.523071%, 13.618469%)" stop-opacity="1"/>
<stop offset="0.957031" stop-color="rgb(94.963074%, 45.314026%, 13.632202%)" stop-opacity="1"/>
<stop offset="0.964844" stop-color="rgb(94.950867%, 45.03479%, 13.650513%)" stop-opacity="1"/>
<stop offset="0.972656" stop-color="rgb(94.941711%, 44.825745%, 13.664246%)" stop-opacity="1"/>
<stop offset="0.976562" stop-color="rgb(94.935608%, 44.68689%, 13.674927%)" stop-opacity="1"/>
<stop offset="0.980469" stop-color="rgb(94.926453%, 44.477844%, 13.68866%)" stop-opacity="1"/>
<stop offset="0.988281" stop-color="rgb(94.917297%, 44.268799%, 13.702393%)" stop-opacity="1"/>
<stop offset="0.992188" stop-color="rgb(94.906616%, 44.059753%, 13.716125%)" stop-opacity="1"/>
<stop offset="1" stop-color="rgb(94.900513%, 43.920898%, 13.725281%)" stop-opacity="1"/>
</radialGradient>
</defs>
<g clip-path="url(#clip-0)">
<g clip-path="url(#clip-1)">
<g clip-path="url(#clip-2)">
<path fill-rule="nonzero" fill="url(#radial-pattern-0)" d="M 802.117188 1989.113281 L 487.464844 757.164062 L 2220.621094 533.1875 L 2535.273438 1765.132812 Z M 802.117188 1989.113281 "/>
</g>
</g>
</g>
<path fill-rule="nonzero" fill="rgb(22.363281%, 8.227539%, 3.529358%)" fill-opacity="1" d="M 630.140625 1439.398438 C 609.710938 1465.761719 581.703125 1510.570312 583.679688 1556.871094 C 586.8125 1629.519531 635.574219 1685.859375 635.574219 1685.859375 C 635.574219 1685.859375 621.570312 1620.621094 622.890625 1584.21875 C 630.800781 1590.308594 637.222656 1595.75 637.222656 1595.75 C 637.222656 1595.75 631.953125 1551.921875 631.292969 1522.601562 L 642.988281 1542.699219 C 644.144531 1517.488281 651.886719 1483.558594 664.570312 1454.398438 C 670.832031 1482.570312 682.859375 1518.980469 706.253906 1559.671875 C 722.890625 1588.660156 740.519531 1609.75 754.523438 1633.308594 C 789.121094 1691.46875 791.425781 1765.441406 762.761719 1826.558594 C 755.675781 1841.710938 741.015625 1851.929688 741.015625 1851.929688 L 830.964844 1851.929688 C 830.964844 1851.929688 839.695312 1784.050781 831.296875 1721.28125 C 815.808594 1605.628906 702.464844 1549.621094 684.175781 1441.378906 C 713.996094 1460.660156 742.824219 1490.480469 758.3125 1514.859375 L 758.476562 1491.628906 C 772.316406 1517.328125 789.777344 1557.859375 789.777344 1557.859375 C 789.777344 1557.859375 792.578125 1549.949219 796.367188 1540.71875 C 815.808594 1571.53125 836.238281 1635.121094 836.238281 1635.121094 C 836.238281 1635.121094 850.40625 1561.808594 816.796875 1497.558594 C 793.238281 1452.578125 739.859375 1427.050781 709.710938 1415.679688 C 734.753906 1403.160156 764.902344 1396.898438 787.964844 1397.890625 L 768.363281 1382.730469 C 794.886719 1386.03125 835.082031 1395.75 835.082031 1395.75 C 835.082031 1395.75 829.316406 1388 822.890625 1378.28125 C 855.511719 1379.769531 916.140625 1401.351562 916.140625 1401.351562 C 828.988281 1308.269531 753.863281 1315.351562 695.378906 1379.269531 C 701.476562 1361.640625 710.535156 1345.328125 719.597656 1334.789062 L 703.945312 1337.429688 C 717.453125 1324.25 740.023438 1306.621094 740.023438 1306.621094 C 740.023438 1306.621094 733.929688 1305.628906 726.679688 1303.820312 C 742.167969 1286.03125 779.398438 1263.621094 779.398438 1263.621094 C 779.398438 1263.621094 726.1875 1261.640625 691.917969 1293.769531 C 673.632812 1310.898438 667.867188 1339.730469 666.382812 1362.800781 C 654.6875 1341.871094 631.785156 1309.089844 601.144531 1302.011719 C 555.34375 1291.300781 510.203125 1319.800781 510.203125 1319.800781 C 510.203125 1319.800781 553.695312 1320.460938 576.101562 1328.039062 C 570.664062 1333.308594 566.054688 1337.261719 566.054688 1337.261719 C 566.054688 1337.261719 594.226562 1341.050781 612.675781 1345.660156 L 602.628906 1349.449219 C 548.917969 1325.730469 494.71875 1337.921875 447.929688 1406.128906 C 447.929688 1406.128906 494.882812 1383.058594 522.230469 1378.28125 C 518.605469 1386.359375 515.476562 1392.78125 515.476562 1392.78125 C 515.476562 1392.78125 547.4375 1381.078125 569.183594 1375.648438 L 555.675781 1389.160156 C 579.234375 1385.199219 613.992188 1388.171875 640.683594 1399.210938 C 523.21875 1411.890625 449.414062 1477.128906 475.9375 1619.140625 C 475.9375 1619.140625 499 1551.761719 520.746094 1520.789062 C 525.195312 1531.828125 528.160156 1541.21875 528.160156 1541.21875 C 528.160156 1541.21875 547.765625 1499.039062 563.417969 1472.679688 L 563.582031 1498.878906 C 578.078125 1478.609375 602.957031 1455.710938 630.140625 1439.398438 "/>
<path fill-rule="nonzero" fill="rgb(22.363281%, 8.227539%, 3.529358%)" fill-opacity="1" d="M 2286.5 1228.859375 L 2287.820312 1228.199219 L 2287.488281 1226.71875 C 2287.160156 1227.378906 2286.828125 1228.199219 2286.5 1228.859375 Z M 2306.269531 1269.550781 C 2320.269531 1279.761719 2384.359375 1330.339844 2392.601562 1393.441406 C 2401.820312 1464.28125 2364.089844 1527.050781 2364.089844 1527.050781 C 2364.089844 1527.050781 2366.570312 1461.480469 2359.148438 1426.390625 C 2352.398438 1433.800781 2347.289062 1440.058594 2347.289062 1440.058594 C 2347.289062 1440.058594 2344.820312 1396.730469 2340.699219 1368.230469 L 2332.789062 1389.648438 C 2327.03125 1363.949219 2316.320312 1323.089844 2300.171875 1290.96875 C 2301 1354.070312 2299.179688 1495.25 2272.988281 1626.558594 C 2260.140625 1690.96875 2252.070312 1736.609375 2247.121094 1768.730469 L 2139.550781 1768.730469 C 2173.320312 1729.03125 2210.390625 1675.808594 2229 1616.339844 C 2257.828125 1524.578125 2267.21875 1371.859375 2270.191406 1295.910156 C 2254.539062 1320.949219 2242.839844 1350.769531 2238.390625 1373.671875 L 2230.320312 1353.570312 C 2227.03125 1380.589844 2225.710938 1421.609375 2225.710938 1421.609375 C 2225.710938 1421.609375 2220.601562 1415.679688 2214.179688 1408.929688 C 2207.910156 1442.199219 2211.699219 1504.148438 2211.699219 1504.148438 C 2150.089844 1406.949219 2174.96875 1325.070312 2254.371094 1268.890625 C 2226.699219 1284.871094 2200.171875 1308.101562 2184.691406 1327.871094 L 2186.328125 1306.289062 C 2170.851562 1329.191406 2151.078125 1365.601562 2151.078125 1365.601562 C 2151.078125 1365.601562 2148.941406 1358.179688 2145.808594 1349.289062 C 2124.878906 1376.46875 2100.339844 1434.128906 2100.339844 1434.128906 C 2086.828125 1325.070312 2141.191406 1262.628906 2233.449219 1242.699219 C 2210.390625 1239.398438 2185.839844 1240.550781 2167.058594 1245.328125 L 2183.699219 1227.378906 C 2158.328125 1236.109375 2120.929688 1253.238281 2120.929688 1253.238281 C 2120.929688 1253.238281 2125.050781 1245.171875 2129.820312 1234.949219 C 2098.191406 1243.191406 2042.839844 1275.480469 2042.839844 1275.480469 C 2112.359375 1172.019531 2187.160156 1163.289062 2255.199219 1209.75 C 2246.960938 1194.589844 2235.921875 1180.921875 2225.871094 1172.679688 L 2240.699219 1172.511719 C 2226.199219 1162.628906 2202.808594 1150.109375 2202.808594 1150.109375 C 2202.808594 1150.109375 2208.078125 1148.128906 2214.5 1145.328125 C 2197.539062 1131.488281 2159.808594 1116.828125 2159.808594 1116.828125 C 2159.808594 1116.828125 2208.238281 1106.78125 2244.820312 1130.671875 C 2264.089844 1143.519531 2274.140625 1168.890625 2279.089844 1189.808594 C 2286.5 1168.890625 2302.308594 1135.121094 2329.171875 1123.75 C 2369.371094 1106.78125 2415.171875 1125.558594 2415.171875 1125.558594 C 2415.171875 1125.558594 2375.460938 1133.140625 2356.191406 1143.679688 C 2362.121094 1147.640625 2367.058594 1150.441406 2367.058594 1150.441406 C 2367.058594 1150.441406 2341.691406 1158.511719 2325.539062 1165.601562 L 2335.429688 1167.570312 C 2380.730469 1137.261719 2432.300781 1139.730469 2486.011719 1194.761719 C 2486.011719 1194.761719 2439.378906 1181.078125 2413.679688 1181.078125 C 2418.128906 1188 2422.089844 1193.269531 2422.089844 1193.269531 C 2422.089844 1193.269531 2390.949219 1187.671875 2370.191406 1186.019531 L 2384.691406 1196.398438 C 2362.28125 1196.570312 2330.320312 1204.96875 2307.589844 1219.628906 C 2415.488281 1176.140625 2509.898438 1198.050781 2552.070312 1333.640625 C 2552.070312 1333.640625 2501.328125 1285.859375 2468.378906 1269.058594 C 2469.859375 1280.75 2471.339844 1290.140625 2471.339844 1290.140625 C 2471.339844 1290.140625 2435.269531 1262.628906 2409.730469 1247.140625 L 2421.589844 1269.710938 C 2396.878906 1257.519531 2359.648438 1248.300781 2325.378906 1248.460938 C 2460.640625 1277.789062 2544.820312 1353.078125 2509.238281 1489.980469 C 2509.238281 1489.980469 2486.171875 1420.789062 2463.109375 1387.339844 C 2457.828125 1397.558594 2454.210938 1406.128906 2454.210938 1406.128906 C 2454.210938 1406.128906 2433.949219 1361.96875 2417.46875 1333.96875 L 2416.480469 1359.5 C 2394.570312 1328.039062 2349.761719 1288.5 2306.269531 1269.550781 "/>
<path fill-rule="nonzero" fill="rgb(22.75238%, 65.818787%, 65.429688%)" fill-opacity="1" d="M 1119.601562 2077.960938 C 989.78125 2091.640625 545.296875 2137.429688 677.09375 2139.738281 C 808.890625 2142.050781 1316.308594 2142.050781 1253.371094 2158.03125 C 1190.441406 2174.011719 738.046875 2196.910156 881.542969 2208.269531 C 1025.199219 2219.808594 1243.488281 2231.179688 1178.578125 2240.398438 C 1113.671875 2249.460938 976.105469 2267.910156 1025.199219 2267.910156 C 1074.460938 2267.910156 1300.660156 2274.671875 1341.839844 2267.910156 C 1383.191406 2260.988281 1178.578125 2240.398438 1243.488281 2226.730469 C 1308.398438 2212.890625 1731.46875 2231.179688 1690.121094 2233.480469 C 1648.769531 2235.789062 1501.320312 2276.96875 1528.828125 2276.96875 C 1556.339844 2276.96875 1902.480469 2279.28125 1939.871094 2270.050781 C 1977.269531 2260.988281 1703.789062 2231.179688 1751.070312 2224.421875 C 1798.359375 2217.5 2048.109375 2212.890625 2118.949219 2210.578125 C 2189.789062 2208.269531 1312.351562 2160.328125 1457.988281 2144.351562 C 1603.628906 2128.210938 2272.328125 2135.128906 2309.730469 2116.839844 C 2347.128906 2098.550781 1619.28125 2087.019531 1696.050781 2080.269531 C 1772.648438 2073.351562 2392.429688 2052.75 2417.96875 2041.21875 C 2514.839844 1997.890625 1431.628906 2044.851562 2087.808594 1985.539062 C 2242.511719 1971.53125 2035.429688 1964.121094 1913.019531 1937.101562 C 1722.898438 1895.089844 1948.601562 1896.570312 2006.589844 1889.660156 C 2121.921875 1875.820312 2072.488281 1868.730469 1964.910156 1860.988281 C 1941.191406 1859.339844 1929.988281 1840.230469 1955.191406 1818.808594 C 1972.820312 1803.988281 1971.671875 1765.601562 1832.949219 1752.261719 C 1912.851562 1798.878906 1879.410156 1819.46875 1790.941406 1843.53125 C 1704.121094 1867.25 1591.601562 1885.699219 1582.539062 1889 C 1536.410156 1905.960938 1691.929688 1912.058594 1659.640625 1925.898438 C 1659.308594 1926.058594 1562.109375 1926.390625 1462.441406 1927.878906 C 1242.011719 1931.011719 1105.761719 1937.601562 1211.53125 1948.46875 C 1381.710938 1965.929688 1850.25 1989.988281 1139.039062 1993.28125 C 947.109375 1994.269531 764.902344 1991.140625 699.332031 1995.089844 C 309.542969 2018.648438 1243 2064.949219 1119.601562 2077.960938 "/>
<path fill-rule="nonzero" fill="rgb(22.363281%, 8.227539%, 3.529358%)" fill-opacity="1" d="M 2452.070312 1930.351562 C 2387.488281 1860.5 2327.691406 1806.128906 2259.648438 1742.539062 L 2159.808594 1638.910156 C 2159.808594 1638.910156 2056.179688 1573.011719 1999.511719 1537.761719 C 1943 1502.5 1870.839844 1454.890625 1840.699219 1439.730469 C 1821.75 1430.179688 1778.261719 1435.941406 1748.769531 1441.550781 C 1729.988281 1410.738281 1711.199219 1382.070312 1697.371094 1366.421875 C 1657.988281 1321.941406 1580.890625 1238.910156 1580.890625 1238.910156 L 1477.589844 1347.148438 C 1477.589844 1347.148438 1369.191406 1411.558594 1346.128906 1428.53125 C 1330.480469 1439.898438 1250.078125 1558.679688 1199.828125 1634.128906 C 1179.570312 1609.589844 1084.019531 1505.800781 1084.019531 1505.800781 L 960.289062 1637.921875 C 960.289062 1637.921875 860.785156 1712.390625 815.480469 1748.628906 C 770.007812 1784.710938 570.664062 1914.859375 570.664062 1914.859375 C 570.664062 1914.859375 658.144531 1894.101562 671.820312 1893.609375 C 685.660156 1892.949219 884.835938 1878.289062 884.835938 1878.289062 L 859.632812 1813.871094 C 859.632812 1813.871094 940.523438 1843.359375 958.480469 1859.839844 C 976.4375 1876.308594 1037.890625 1940.890625 1037.890625 1940.890625 L 1028.171875 1874.171875 L 1117.460938 1908.441406 L 1043.820312 1736.109375 L 1061.609375 1587.511719 L 1185.828125 1806.128906 C 1309.058594 1824.578125 1410.378906 1855.71875 1528.671875 1887.679688 C 1528.671875 1887.679688 1398.351562 1814.859375 1369.359375 1793.609375 C 1340.359375 1772.359375 1354.53125 1782.238281 1345.960938 1774.988281 C 1357.488281 1717.5 1384.679688 1583.71875 1393.410156 1570.871094 C 1404.449219 1554.398438 1436.410156 1492.949219 1436.410156 1492.949219 C 1546.128906 1706.949219 1499.011719 1710.410156 1704.121094 1816.671875 C 1670.511719 1716.839844 1668.371094 1747.640625 1675.449219 1632.980469 L 1757.828125 1723.429688 L 1802.96875 1796.898438 C 1802.96875 1796.898438 1774.628906 1637.761719 1749.101562 1598.710938 C 1723.398438 1559.671875 1666.058594 1479.769531 1666.058594 1479.769531 L 1580.230469 1537.261719 L 1592.421875 1342.53125 L 1817.628906 1561.96875 C 1817.628906 1561.96875 1796.539062 1522.769531 1770.839844 1478.449219 C 1795.058594 1476.640625 1825.210938 1474.988281 1833.449219 1477.460938 C 1841.519531 1479.929688 1874.300781 1566.261719 1901.820312 1642.699219 C 1923.890625 1703.820312 1838.71875 1693.769531 1838.71875 1693.769531 L 2095.558594 1847.96875 L 2063.429688 1771.371094 L 1974.960938 1670.710938 L 1963.269531 1594.589844 C 1963.269531 1594.589844 2155.03125 1793.941406 2188.96875 1826.71875 C 2222.910156 1859.671875 2255.53125 1938.261719 2255.53125 1938.261719 L 2250.910156 1827.550781 L 2452.070312 1930.351562 "/>
<path fill-rule="nonzero" fill="rgb(22.363281%, 8.227539%, 3.529358%)" fill-opacity="1" d="M 1570.351562 994.589844 C 1570.351562 994.589844 1473.96875 1048.300781 1422.730469 1088.660156 C 1371.328125 1128.859375 1365.070312 1146.148438 1333.441406 1161.308594 C 1301.808594 1176.300781 1296.371094 1177.789062 1296.371094 1177.789062 C 1296.371094 1177.789062 1262.441406 1180.921875 1221.410156 1177.789062 C 1180.230469 1174.660156 1160.621094 1173.828125 1099.671875 1189.648438 C 1038.878906 1205.460938 1008.890625 1203.820312 1008.890625 1203.820312 C 1008.890625 1203.820312 1021.578125 1215.679688 1083.191406 1215.679688 C 1144.808594 1215.679688 1177.921875 1203.160156 1211.03125 1203.160156 C 1244.308594 1203.160156 1274.960938 1202.328125 1274.960938 1202.328125 C 1274.960938 1202.328125 1303.289062 1229.519531 1339.539062 1233.140625 C 1375.78125 1236.769531 1390.941406 1225.890625 1402.308594 1223.089844 C 1413.511719 1220.289062 1415.160156 1220.289062 1415.160156 1220.289062 C 1415.160156 1220.289062 1407.578125 1213.539062 1395.878906 1210.570312 C 1384.179688 1207.769531 1365.238281 1192.449219 1365.238281 1192.449219 C 1365.238281 1192.449219 1428.828125 1131.328125 1459.46875 1105.460938 C 1490.121094 1079.761719 1530.308594 1071.691406 1548.109375 1049.941406 C 1565.730469 1028.199219 1570.351562 994.589844 1570.351562 994.589844 "/>
</svg>
